<svg xmlns:xlink="http://www.w3.org/1999/xlink" _ngcontent-uuc-c204="" fill="none" height="24" viewBox="0 0 24 24" width="24" xmlns="http://www.w3.org/2000/svg" class="ng-star-inserted"><path _ngcontent-uuc-c204="" d="M14.9478 4.30902C14.1993 3.46487 13.1539 3 12.0001 3C10.8401 3 9.79121 3.46205 9.0462 4.30098C8.29312 5.14915 7.92619 6.30188 8.01235 7.54661C8.18312 10.0023 9.97198 12 12.0001 12C14.0282 12 15.814 10.0027 15.9874 7.54741C16.0747 6.31393 15.7055 5.16362 14.9478 4.30902Z" fill="#bdbdbd"></path><path _ngcontent-uuc-c204="" d="M18.769 20.9999H5.23096C5.05375 21.0024 4.87827 20.9621 4.71726 20.8818C4.55626 20.8016 4.41379 20.6835 4.30021 20.5361C4.05022 20.2124 3.94945 19.7703 4.02407 19.3232C4.34867 17.3724 5.36172 15.7337 6.95399 14.5833C8.36856 13.5621 10.1604 13 12 13C13.8396 13 15.6314 13.5625 17.046 14.5833C18.6383 15.7333 19.6513 17.372 19.9759 19.3228C20.0505 19.7699 19.9498 20.212 19.6998 20.5357C19.5863 20.6832 19.4438 20.8014 19.2828 20.8816C19.1218 20.9619 18.9463 21.0023 18.769 20.9999V20.9999Z" fill="#bdbdbd"></path></svg>