<svg xmlns="http://www.w3.org/2000/svg" xmlns:xlink="http://www.w3.org/1999/xlink" version="1.1" width="26" height="26" viewBox="0 0 256 256" xml:space="preserve">

<defs>
</defs>
<g style="stroke: none; stroke-width: 0; stroke-dasharray: none; stroke-linecap: butt; stroke-linejoin: miter; stroke-miterlimit: 10; fill: none; fill-rule: nonzero; opacity: 1;" transform="translate(4.681712062256807 4.681712062256807) scale(2.73 2.73)" >
	<path d="M 40.992 78.61 c -4.642 0 -9.108 -1.949 -12.268 -5.351 c -0.03 -0.027 -0.06 -0.058 -0.086 -0.09 c -0.277 -0.307 -0.517 -0.589 -0.749 -0.88 L 13.093 54.854 c -0.852 -1.002 -1.264 -2.276 -1.158 -3.589 c 0.106 -1.313 0.716 -2.505 1.719 -3.358 c 1.002 -0.854 2.277 -1.265 3.59 -1.159 c 1.313 0.105 2.505 0.716 3.358 1.72 l 3.647 4.317 V 25.673 c 0 -2.718 2.211 -4.929 4.929 -4.929 s 4.929 2.211 4.929 4.929 v 10.025 c 0.819 -0.607 1.833 -0.967 2.929 -0.967 c 2.315 0 4.263 1.605 4.789 3.761 c 0.843 -0.672 1.91 -1.075 3.069 -1.075 c 2.351 0 4.323 1.654 4.812 3.859 c 0.852 -0.672 1.928 -1.074 3.098 -1.074 c 2.718 0 4.929 2.211 4.929 4.929 v 16.736 C 57.733 71.1 50.223 78.61 40.992 78.61 z M 30.105 71.809 c 0.011 0.012 0.022 0.023 0.034 0.035 c 2.785 3.029 6.741 4.767 10.853 4.767 c 8.128 0 14.742 -6.613 14.742 -14.742 V 45.132 c 0 -1.615 -1.313 -2.929 -2.929 -2.929 s -2.98 1.346 -2.98 2.939 v 0.237 c 0 0.552 -0.447 1 -1 1 s -1 -0.448 -1 -1 v -3.033 c 0 -1.615 -1.314 -2.929 -2.929 -2.929 c -1.615 0 -2.929 1.314 -2.929 2.929 c 0 0.552 -0.448 1 -1 1 s -1 -0.448 -1 -1 v -2.686 c 0 -1.615 -1.314 -2.929 -2.929 -2.929 c -1.615 0 -2.929 1.314 -2.929 2.929 c 0 0.552 -0.448 1 -1 1 s -1 -0.448 -1 -1 V 25.673 c 0 -1.615 -1.314 -2.929 -2.929 -2.929 s -2.929 1.314 -2.929 2.929 v 29.844 c 0 0.42 -0.262 0.795 -0.656 0.939 c -0.393 0.143 -0.836 0.027 -1.108 -0.294 l -5.409 -6.403 c -0.504 -0.594 -1.213 -0.956 -1.993 -1.02 c -0.785 -0.062 -1.538 0.182 -2.134 0.689 c -0.596 0.507 -0.958 1.216 -1.021 1.995 c -0.063 0.78 0.182 1.537 0.689 2.133 L 29.434 71.02 c 0.224 0.28 0.435 0.529 0.655 0.771 C 30.091 71.793 30.097 71.8 30.105 71.809 z" style="stroke: none; stroke-width: 1; stroke-dasharray: none; stroke-linecap: butt; stroke-linejoin: miter; stroke-miterlimit: 10; fill: rgb(189,189,189); fill-rule: nonzero; opacity: 1;" transform=" matrix(1 0 0 1 0 0) " stroke-linecap="round" />
	<path d="M 33.108 46.663 c -0.552 0 -1 -0.447 -1 -1 v -6.002 c 0 -0.552 0.448 -1 1 -1 s 1 0.448 1 1 v 6.002 C 34.108 46.216 33.66 46.663 33.108 46.663 z" style="stroke: none; stroke-width: 1; stroke-dasharray: none; stroke-linecap: butt; stroke-linejoin: miter; stroke-miterlimit: 10; fill: rgb(189,189,189); fill-rule: nonzero; opacity: 1;" transform=" matrix(1 0 0 1 0 0) " stroke-linecap="round" />
	<path d="M 40.966 46.663 c -0.552 0 -1 -0.447 -1 -1 v -3.316 c 0 -0.552 0.448 -1 1 -1 s 1 0.448 1 1 v 3.316 C 41.966 46.216 41.518 46.663 40.966 46.663 z" style="stroke: none; stroke-width: 1; stroke-dasharray: none; stroke-linecap: butt; stroke-linejoin: miter; stroke-miterlimit: 10; fill: rgb(189,189,189); fill-rule: nonzero; opacity: 1;" transform=" matrix(1 0 0 1 0 0) " stroke-linecap="round" />
	<path d="M 48.824 46.663 c -0.553 0 -1 -0.447 -1 -1 V 45.38 c 0 -0.552 0.447 -1 1 -1 s 1 0.448 1 1 v 0.283 C 49.824 46.216 49.377 46.663 48.824 46.663 z" style="stroke: none; stroke-width: 1; stroke-dasharray: none; stroke-linecap: butt; stroke-linejoin: miter; stroke-miterlimit: 10; fill: rgb(189,189,189); fill-rule: nonzero; opacity: 1;" transform=" matrix(1 0 0 1 0 0) " stroke-linecap="round" />
	<path d="M 74.347 42.696 H 54.693 c -0.553 0 -1 -0.448 -1 -1 s 0.447 -1 1 -1 h 19.653 C 81.875 40.696 88 34.571 88 27.043 S 81.875 13.39 74.347 13.39 H 15.653 C 8.125 13.39 2 19.515 2 27.043 s 6.125 13.653 13.653 13.653 h 9.597 c 0.552 0 1 0.448 1 1 s -0.448 1 -1 1 h -9.597 C 7.022 42.696 0 35.674 0 27.043 S 7.022 11.39 15.653 11.39 h 58.694 C 82.978 11.39 90 18.412 90 27.043 S 82.978 42.696 74.347 42.696 z" style="stroke: none; stroke-width: 1; stroke-dasharray: none; stroke-linecap: butt; stroke-linejoin: miter; stroke-miterlimit: 10; fill: rgb(189,189,189); fill-rule: nonzero; opacity: 1;" transform=" matrix(1 0 0 1 0 0) " stroke-linecap="round" />
	<path d="M 62.39 34.07 c -0.238 0 -0.477 -0.084 -0.667 -0.255 l -6.511 -5.833 c -0.412 -0.368 -0.446 -1 -0.078 -1.412 c 0.371 -0.411 1.003 -0.445 1.412 -0.077 l 5.785 5.183 l 8.992 -9.537 c 0.378 -0.401 1.013 -0.42 1.413 -0.042 c 0.402 0.379 0.421 1.012 0.042 1.414 l -9.661 10.246 C 62.921 33.965 62.655 34.07 62.39 34.07 z" style="stroke: none; stroke-width: 1; stroke-dasharray: none; stroke-linecap: butt; stroke-linejoin: miter; stroke-miterlimit: 10; fill: rgb(189,189,189); fill-rule: nonzero; opacity: 1;" transform=" matrix(1 0 0 1 0 0) " stroke-linecap="round" />
</g>
</svg>