<svg xmlns:xlink="http://www.w3.org/1999/xlink" _ngcontent-uuc-c204="" fill="none" height="20" viewBox="0 0 18 20" width="18" xmlns="http://www.w3.org/2000/svg" style="margin-right: 5px;" class="ng-star-inserted"><path _ngcontent-uuc-c204="" clip-rule="evenodd" d="M3.0001 8.79844V6.39844C3.0001 3.08473 5.68639 0.398438 9.0001 0.398438C12.3138 0.398438 15.0001 3.08473 15.0001 6.39844V8.79844C16.3256 8.79844 17.4001 9.87295 17.4001 11.1984V17.1984C17.4001 18.5239 16.3256 19.5984 15.0001 19.5984H3.0001C1.67461 19.5984 0.600098 18.5239 0.600098 17.1984V11.1984C0.600098 9.87295 1.67461 8.79844 3.0001 8.79844ZM12.6001 6.39844V8.79844H5.4001V6.39844C5.4001 4.41021 7.01187 2.79844 9.0001 2.79844C10.9883 2.79844 12.6001 4.41021 12.6001 6.39844Z" fill="#bdbdbd" fill-rule="evenodd"></path></svg>