<svg xmlns:xlink="http://www.w3.org/1999/xlink" _ngcontent-plv-c204="" fill="none" height="50" viewBox="0 0 50 50" width="50" xmlns="http://www.w3.org/2000/svg"><g _ngcontent-plv-c204="" clip-path="url(#clip0_4511_216765)" fill="none"><rect _ngcontent-plv-c204="" fill="#FFFFFF" height="48.327" transform="translate(0.662109 0.836426)" width="48.6747"></rect><g _ngcontent-plv-c204="" clip-path="url(#clip1_4511_216765)" fill="none"><rect _ngcontent-plv-c204="" fill="#FFFFFF" height="25.3843" width="26.3422" x="12.0332" y="12.4084"></rect><path _ngcontent-plv-c204="" clip-rule="evenodd" d="M24.8291 49.1634H25.003C36.2461 49.1634 43.7802 46.825 45.3449 45.3527C46.9966 43.8804 49.1699 36.23 49.1699 24.9999C49.1699 13.7698 46.9966 6.11949 45.3449 4.64716C43.7802 3.2037 36.2461 0.865295 25.003 0.836426H24.8291C13.6149 0.865295 6.05187 3.2037 4.4871 4.64716C2.8354 6.11949 0.662109 13.7698 0.662109 24.9999C0.662109 36.2589 2.8354 43.8804 4.4871 45.3527C6.05187 46.7962 13.5859 49.1346 24.8291 49.1634ZM35.1739 15.1554L36.1011 26.4433L36.7386 34.8731H33.3193C31.8705 34.8731 31.2619 34.238 31.146 32.679L30.6534 22.2573H30.5955C30.1898 23.7873 27.0023 31.4377 27.0023 31.4377H22.8006C22.8006 31.4377 19.6131 23.6718 19.3813 22.8635L19.2074 22.2573H19.1495C19.2364 23.5852 18.6569 32.679 18.6569 32.679C18.541 34.238 17.9614 34.8731 16.4836 34.8731H13.0643L13.8467 24.9421L14.7739 15.1554H20.3955L24.887 25.0287H24.9449C25.3216 23.8451 29.5813 15.1554 29.5813 15.1554H35.1739Z" fill="#0361F0" fill-rule="evenodd"></path></g></g><defs _ngcontent-plv-c204=""><clipPath _ngcontent-plv-c204="" id="clip0_4511_216765"><rect _ngcontent-plv-c204="" fill="white" height="48.327" transform="translate(0.662109 0.836426)" width="48.6747"></rect></clipPath><clipPath _ngcontent-plv-c204="" id="clip1_4511_216765"><rect _ngcontent-plv-c204="" fill="white" height="48.327" transform="translate(0.662109 0.836426)" width="48.6747"></rect></clipPath></defs></svg>